<?xml version="1.0" encoding="UTF-8" standalone="no"?>
<svg
   xmlns:dc="http://purl.org/dc/elements/1.1/"
   xmlns:cc="http://creativecommons.org/ns#"
   xmlns:rdf="http://www.w3.org/1999/02/22-rdf-syntax-ns#"
   xmlns:svg="http://www.w3.org/2000/svg"
   xmlns="http://www.w3.org/2000/svg"
   xmlns:sodipodi="http://sodipodi.sourceforge.net/DTD/sodipodi-0.dtd"
   xmlns:inkscape="http://www.inkscape.org/namespaces/inkscape"
   width="153pt"
   height="98pt"
   viewBox="0 0 153 98"
   version="1.1"
   id="svg657"
   sodipodi:docname="stencil.svg"
   inkscape:version="0.92.5 (2060ec1f9f, 2020-04-08)">
  <metadata
     id="metadata663">
    <rdf:RDF>
      <cc:Work
         rdf:about="">
        <dc:format>image/svg+xml</dc:format>
        <dc:type
           rdf:resource="http://purl.org/dc/dcmitype/StillImage" />
      </cc:Work>
    </rdf:RDF>
  </metadata>
  <defs
     id="defs661" />
  <sodipodi:namedview
     pagecolor="#ffffff"
     bordercolor="#666666"
     borderopacity="1"
     objecttolerance="10"
     gridtolerance="10"
     guidetolerance="10"
     inkscape:pageopacity="0"
     inkscape:pageshadow="2"
     inkscape:window-width="1684"
     inkscape:window-height="1373"
     id="namedview659"
     showgrid="false"
     inkscape:zoom="4.5727041"
     inkscape:cx="74.021116"
     inkscape:cy="76.718113"
     inkscape:window-x="1756"
     inkscape:window-y="30"
     inkscape:window-maximized="0"
     inkscape:current-layer="svg657" />
  <path
     inkscape:connector-curvature="0"
     id="path370"
     d="m 66.805273,25.474609 h 1.276173 v -1.01953 h -1.276173 z m 0,0"
     style="fill:none;fill-opacity:1;fill-rule:evenodd;stroke:#000000;stroke-width:0.2551181;stroke-miterlimit:5.00699282;stroke-dasharray:none;stroke-opacity:1" />
  <path
     inkscape:connector-curvature="0"
     id="path372"
     d="m 73.89121,25.474609 h 1.276173 v -1.01953 H 73.89121 Z m 0,0"
     style="fill:none;fill-opacity:1;fill-rule:evenodd;stroke:#000000;stroke-width:0.2551181;stroke-miterlimit:5.00699282;stroke-dasharray:none;stroke-opacity:1" />
  <path
     inkscape:connector-curvature="0"
     id="path374"
     d="m 62.808203,23.337305 h 0.766407 v -2.295704 h -0.766407 z m 0,0"
     style="fill:none;fill-opacity:1;fill-rule:evenodd;stroke:#000000;stroke-width:0.2551181;stroke-miterlimit:5.00699282;stroke-dasharray:none;stroke-opacity:1" />
  <path
     inkscape:connector-curvature="0"
     id="path376"
     d="m 64.226172,23.337305 h 0.766406 v -2.295704 h -0.766406 z m 0,0"
     style="fill:none;fill-opacity:1;fill-rule:evenodd;stroke:#000000;stroke-width:0.2551181;stroke-miterlimit:5.00699282;stroke-dasharray:none;stroke-opacity:1" />
  <path
     inkscape:connector-curvature="0"
     id="path378"
     d="m 65.640234,23.337305 h 0.766407 v -2.295704 h -0.766407 z m 0,0"
     style="fill:none;fill-opacity:1;fill-rule:evenodd;stroke:#000000;stroke-width:0.2551181;stroke-miterlimit:5.00699282;stroke-dasharray:none;stroke-opacity:1" />
  <path
     inkscape:connector-curvature="0"
     id="path380"
     d="m 67.058203,23.337305 h 0.766407 v -2.295704 h -0.766407 z m 0,0"
     style="fill:none;fill-opacity:1;fill-rule:evenodd;stroke:#000000;stroke-width:0.2551181;stroke-miterlimit:5.00699282;stroke-dasharray:none;stroke-opacity:1" />
  <path
     inkscape:connector-curvature="0"
     id="path382"
     d="m 68.476172,23.337305 h 0.766406 v -2.295704 h -0.766406 z m 0,0"
     style="fill:none;fill-opacity:1;fill-rule:evenodd;stroke:#000000;stroke-width:0.2551181;stroke-miterlimit:5.00699282;stroke-dasharray:none;stroke-opacity:1" />
  <path
     inkscape:connector-curvature="0"
     id="path384"
     d="m 69.89414,23.337305 h 0.766407 V 21.041601 H 69.89414 Z m 0,0"
     style="fill:none;fill-opacity:1;fill-rule:evenodd;stroke:#000000;stroke-width:0.2551181;stroke-miterlimit:5.00699282;stroke-dasharray:none;stroke-opacity:1" />
  <path
     inkscape:connector-curvature="0"
     id="path386"
     d="m 71.312109,23.337305 h 0.766407 v -2.295704 h -0.766407 z m 0,0"
     style="fill:none;fill-opacity:1;fill-rule:evenodd;stroke:#000000;stroke-width:0.2551181;stroke-miterlimit:5.00699282;stroke-dasharray:none;stroke-opacity:1" />
  <path
     inkscape:connector-curvature="0"
     id="path388"
     d="m 72.730078,23.337305 h 0.766406 v -2.295704 h -0.766406 z m 0,0"
     style="fill:none;fill-opacity:1;fill-rule:evenodd;stroke:#000000;stroke-width:0.2551181;stroke-miterlimit:5.00699282;stroke-dasharray:none;stroke-opacity:1" />
  <path
     inkscape:connector-curvature="0"
     id="path390"
     d="m 74.14414,23.337305 h 0.766407 V 21.041601 H 74.14414 Z m 0,0"
     style="fill:none;fill-opacity:1;fill-rule:evenodd;stroke:#000000;stroke-width:0.2551181;stroke-miterlimit:5.00699282;stroke-dasharray:none;stroke-opacity:1" />
  <path
     inkscape:connector-curvature="0"
     id="path392"
     d="m 75.562109,23.337305 h 0.766407 v -2.295704 h -0.766407 z m 0,0"
     style="fill:none;fill-opacity:1;fill-rule:evenodd;stroke:#000000;stroke-width:0.2551181;stroke-miterlimit:5.00699282;stroke-dasharray:none;stroke-opacity:1" />
  <path
     inkscape:connector-curvature="0"
     id="path394"
     d="m 76.980078,23.337305 h 0.766406 v -2.295704 h -0.766406 z m 0,0"
     style="fill:none;fill-opacity:1;fill-rule:evenodd;stroke:#000000;stroke-width:0.2551181;stroke-miterlimit:5.00699282;stroke-dasharray:none;stroke-opacity:1" />
  <path
     inkscape:connector-curvature="0"
     id="path396"
     d="m 78.398047,23.337305 h 0.766406 v -2.295704 h -0.766406 z m 0,0"
     style="fill:none;fill-opacity:1;fill-rule:evenodd;stroke:#000000;stroke-width:0.2551181;stroke-miterlimit:5.00699282;stroke-dasharray:none;stroke-opacity:1" />
  <path
     inkscape:connector-curvature="0"
     id="path398"
     d="m 43.42461,87.664258 h -0.446485 c -0.123047,0 -0.221485,-0.101953 -0.221485,-0.225 v -1.65586 c 0,-0.126562 0.09844,-0.225 0.221485,-0.225 h 0.446485 c 0.123047,0 0.225,0.09844 0.225,0.225 v 1.65586 c 0,0.123047 -0.101953,0.225 -0.225,0.225 z m 0,0"
     style="fill:none;fill-opacity:1;fill-rule:evenodd;stroke:#000000;stroke-width:0.2551181;stroke-miterlimit:5.00699282;stroke-dasharray:none;stroke-opacity:1" />
  <path
     inkscape:connector-curvature="0"
     id="path400"
     d="m 45.267969,87.664258 h -0.446485 c -0.123047,0 -0.225,-0.101953 -0.225,-0.225 v -1.65586 c 0,-0.126562 0.101953,-0.225 0.225,-0.225 h 0.446485 c 0.123047,0 0.221484,0.09844 0.221484,0.225 v 1.65586 c 0,0.123047 -0.09844,0.225 -0.221484,0.225 z m 0,0"
     style="fill:none;fill-opacity:1;fill-rule:evenodd;stroke:#000000;stroke-width:0.2551181;stroke-miterlimit:5.00699282;stroke-dasharray:none;stroke-opacity:1" />
  <path
     inkscape:connector-curvature="0"
     id="path402"
     d="m 47.108203,87.664258 h -0.446484 c -0.123047,0 -0.221485,-0.101953 -0.221485,-0.225 v -1.65586 c 0,-0.126562 0.09844,-0.225 0.221485,-0.225 h 0.446484 c 0.123047,0 0.225,0.09844 0.225,0.225 v 1.65586 c 0,0.123047 -0.101953,0.225 -0.225,0.225 z m 0,0"
     style="fill:none;fill-opacity:1;fill-rule:evenodd;stroke:#000000;stroke-width:0.2551181;stroke-miterlimit:5.00699282;stroke-dasharray:none;stroke-opacity:1" />
  <path
     inkscape:connector-curvature="0"
     id="path404"
     d="m 48.951953,87.664258 h -0.446484 c -0.123047,0 -0.221485,-0.101953 -0.221485,-0.225 v -1.65586 c 0,-0.126562 0.09844,-0.225 0.221485,-0.225 h 0.446484 c 0.123047,0 0.225,0.09844 0.225,0.225 v 1.65586 c 0,0.123047 -0.101953,0.225 -0.225,0.225 z m 0,0"
     style="fill:none;fill-opacity:1;fill-rule:evenodd;stroke:#000000;stroke-width:0.2551181;stroke-miterlimit:5.00699282;stroke-dasharray:none;stroke-opacity:1" />
  <path
     inkscape:connector-curvature="0"
     id="path406"
     d="m 52.357227,84.258985 h -1.659375 c -0.123047,0 -0.221485,-0.101954 -0.221485,-0.225 V 83.5875 c 0,-0.123047 0.09844,-0.221485 0.221485,-0.221485 h 1.659375 c 0.123047,0 0.225,0.09844 0.225,0.221485 v 0.446485 c 0,0.123046 -0.101953,0.225 -0.225,0.225 z m 0,0"
     style="fill:none;fill-opacity:1;fill-rule:evenodd;stroke:#000000;stroke-width:0.2551181;stroke-miterlimit:5.00699282;stroke-dasharray:none;stroke-opacity:1" />
  <path
     inkscape:connector-curvature="0"
     id="path408"
     d="m 52.357227,82.415235 h -1.659375 c -0.123047,0 -0.221485,-0.09844 -0.221485,-0.221485 v -0.446485 c 0,-0.123046 0.09844,-0.225 0.221485,-0.225 h 1.659375 c 0.123047,0 0.225,0.101954 0.225,0.225 v 0.446485 c 0,0.123047 -0.101953,0.221485 -0.225,0.221485 z m 0,0"
     style="fill:none;fill-opacity:1;fill-rule:evenodd;stroke:#000000;stroke-width:0.2551181;stroke-miterlimit:5.00699282;stroke-dasharray:none;stroke-opacity:1" />
  <path
     inkscape:connector-curvature="0"
     id="path410"
     d="m 52.357227,80.571485 h -1.659375 c -0.123047,0 -0.221485,-0.09844 -0.221485,-0.221485 v -0.446485 c 0,-0.123046 0.09844,-0.225 0.221485,-0.225 h 1.659375 c 0.123047,0 0.225,0.101954 0.225,0.225 V 80.35 c 0,0.123047 -0.101953,0.221485 -0.225,0.221485 z m 0,0"
     style="fill:none;fill-opacity:1;fill-rule:evenodd;stroke:#000000;stroke-width:0.2551181;stroke-miterlimit:5.00699282;stroke-dasharray:none;stroke-opacity:1" />
  <path
     inkscape:connector-curvature="0"
     id="path412"
     d="m 52.357227,78.731641 h -1.659375 c -0.123047,0 -0.221485,-0.101953 -0.221485,-0.225 v -0.446485 c 0,-0.123046 0.09844,-0.221485 0.221485,-0.221485 h 1.659375 c 0.123047,0 0.225,0.09844 0.225,0.221485 v 0.446485 c 0,0.123047 -0.101953,0.225 -0.225,0.225 z m 0,0"
     style="fill:none;fill-opacity:1;fill-rule:evenodd;stroke:#000000;stroke-width:0.2551181;stroke-miterlimit:5.00699282;stroke-dasharray:none;stroke-opacity:1" />
  <path
     inkscape:connector-curvature="0"
     id="path414"
     d="m 48.951953,76.535547 h -0.446484 c -0.123047,0 -0.221485,-0.09844 -0.221485,-0.221484 v -1.659375 c 0,-0.123048 0.09844,-0.221485 0.221485,-0.221485 h 0.446484 c 0.123047,0 0.225,0.09844 0.225,0.221485 v 1.659375 c 0,0.123047 -0.101953,0.221484 -0.225,0.221484 z m 0,0"
     style="fill:none;fill-opacity:1;fill-rule:evenodd;stroke:#000000;stroke-width:0.2551181;stroke-miterlimit:5.00699282;stroke-dasharray:none;stroke-opacity:1" />
  <path
     inkscape:connector-curvature="0"
     id="path416"
     d="m 47.108203,76.535547 h -0.446484 c -0.123047,0 -0.221485,-0.09844 -0.221485,-0.221484 v -1.659376 c 0,-0.123047 0.09844,-0.221484 0.221485,-0.221484 h 0.446484 c 0.123047,0 0.225,0.09844 0.225,0.221484 v 1.659376 c 0,0.123047 -0.101953,0.221484 -0.225,0.221484 z m 0,0"
     style="fill:none;fill-opacity:1;fill-rule:evenodd;stroke:#000000;stroke-width:0.2551181;stroke-miterlimit:5.00699282;stroke-dasharray:none;stroke-opacity:1" />
  <path
     inkscape:connector-curvature="0"
     id="path418"
     d="m 45.267969,76.535547 h -0.446485 c -0.123047,0 -0.225,-0.09844 -0.225,-0.221484 v -1.659376 c 0,-0.123047 0.101953,-0.221484 0.225,-0.221484 h 0.446485 c 0.123047,0 0.221484,0.09844 0.221484,0.221484 v 1.659376 c 0,0.123047 -0.09844,0.221484 -0.221484,0.221484 z m 0,0"
     style="fill:none;fill-opacity:1;fill-rule:evenodd;stroke:#000000;stroke-width:0.2551181;stroke-miterlimit:5.00699282;stroke-dasharray:none;stroke-opacity:1" />
  <path
     inkscape:connector-curvature="0"
     id="path420"
     d="m 43.42461,76.535547 h -0.446485 c -0.123047,0 -0.221485,-0.09844 -0.221485,-0.221484 v -1.659375 c 0,-0.123048 0.09844,-0.221485 0.221485,-0.221485 h 0.446485 c 0.123047,0 0.225,0.09844 0.225,0.221485 v 1.659375 c 0,0.123047 -0.101953,0.221484 -0.225,0.221484 z m 0,0"
     style="fill:none;fill-opacity:1;fill-rule:evenodd;stroke:#000000;stroke-width:0.2551181;stroke-miterlimit:5.00699282;stroke-dasharray:none;stroke-opacity:1" />
  <path
     inkscape:connector-curvature="0"
     id="path422"
     d="m 41.232031,78.731641 h -1.659375 c -0.123047,0 -0.221484,-0.101953 -0.221484,-0.225 v -0.446485 c 0,-0.123046 0.09844,-0.221485 0.221484,-0.221485 h 1.659375 c 0.123048,0 0.221484,0.09844 0.221484,0.221485 v 0.446485 c 0,0.123047 -0.09844,0.225 -0.221484,0.225 z m 0,0"
     style="fill:none;fill-opacity:1;fill-rule:evenodd;stroke:#000000;stroke-width:0.2551181;stroke-miterlimit:5.00699282;stroke-dasharray:none;stroke-opacity:1" />
  <path
     inkscape:connector-curvature="0"
     id="path424"
     d="m 41.232031,80.571485 h -1.659375 c -0.123047,0 -0.221484,-0.09844 -0.221484,-0.221485 v -0.446485 c 0,-0.123046 0.09844,-0.225 0.221484,-0.225 h 1.659375 c 0.123048,0 0.221484,0.101954 0.221484,0.225 V 80.35 c 0,0.123047 -0.09844,0.221485 -0.221484,0.221485 z m 0,0"
     style="fill:none;fill-opacity:1;fill-rule:evenodd;stroke:#000000;stroke-width:0.2551181;stroke-miterlimit:5.00699282;stroke-dasharray:none;stroke-opacity:1" />
  <path
     inkscape:connector-curvature="0"
     id="path426"
     d="m 41.232031,82.415235 h -1.659375 c -0.123047,0 -0.221484,-0.09844 -0.221484,-0.221485 v -0.446485 c 0,-0.123046 0.09844,-0.225 0.221484,-0.225 h 1.659375 c 0.123048,0 0.221484,0.101954 0.221484,0.225 v 0.446485 c 0,0.123047 -0.09844,0.221485 -0.221484,0.221485 z m 0,0"
     style="fill:none;fill-opacity:1;fill-rule:evenodd;stroke:#000000;stroke-width:0.2551181;stroke-miterlimit:5.00699282;stroke-dasharray:none;stroke-opacity:1" />
  <path
     inkscape:connector-curvature="0"
     id="path428"
     d="m 41.232031,84.258985 h -1.659375 c -0.123047,0 -0.221484,-0.101954 -0.221484,-0.225 V 83.5875 c 0,-0.123047 0.09844,-0.221485 0.221484,-0.221485 h 1.659375 c 0.123048,0 0.221484,0.09844 0.221484,0.221485 v 0.446485 c 0,0.123046 -0.09844,0.225 -0.221484,0.225 z m 0,0"
     style="fill:none;fill-opacity:1;fill-rule:evenodd;stroke:#000000;stroke-width:0.2551181;stroke-miterlimit:5.00699282;stroke-dasharray:none;stroke-opacity:1" />
  <path
     inkscape:connector-curvature="0"
     id="path430"
     d="m 45.014453,83.825586 h -1.216406 c -0.3375,0 -0.608203,-0.274219 -0.608203,-0.608203 v -1.219922 c 0,-0.333984 0.270703,-0.608203 0.608203,-0.608203 h 1.216406 c 0.3375,0 0.608203,0.274219 0.608203,0.608203 v 1.219922 c 0,0.333984 -0.270703,0.608203 -0.608203,0.608203 z m 0,0"
     style="fill:none;fill-opacity:1;fill-rule:evenodd;stroke:#000000;stroke-width:0.2551181;stroke-miterlimit:5.00699282;stroke-dasharray:none;stroke-opacity:1" />
  <path
     inkscape:connector-curvature="0"
     id="path432"
     d="m 48.131836,83.825586 h -1.216407 c -0.3375,0 -0.608202,-0.274219 -0.608202,-0.608203 v -1.219922 c 0,-0.333984 0.270702,-0.608203 0.608202,-0.608203 h 1.216407 c 0.3375,0 0.611718,0.274219 0.611718,0.608203 v 1.219922 c 0,0.333984 -0.274218,0.608203 -0.611718,0.608203 z m 0,0"
     style="fill:none;fill-opacity:1;fill-rule:evenodd;stroke:#000000;stroke-width:0.2551181;stroke-miterlimit:5.00699282;stroke-dasharray:none;stroke-opacity:1" />
  <path
     inkscape:connector-curvature="0"
     id="path434"
     d="m 45.014453,80.708398 h -1.216406 c -0.3375,0 -0.608203,-0.274219 -0.608203,-0.611719 v -1.216406 c 0,-0.3375 0.270703,-0.608202 0.608203,-0.608202 h 1.216406 c 0.3375,0 0.608203,0.270702 0.608203,0.608202 v 1.216406 c 0,0.3375 -0.270703,0.611719 -0.608203,0.611719 z m 0,0"
     style="fill:none;fill-opacity:1;fill-rule:evenodd;stroke:#000000;stroke-width:0.2551181;stroke-miterlimit:5.00699282;stroke-dasharray:none;stroke-opacity:1" />
  <path
     inkscape:connector-curvature="0"
     id="path436"
     d="m 48.131836,80.708398 h -1.216407 c -0.3375,0 -0.608202,-0.274219 -0.608202,-0.611719 v -1.216406 c 0,-0.3375 0.270702,-0.608202 0.608202,-0.608202 h 1.216407 c 0.3375,0 0.611718,0.270702 0.611718,0.608202 v 1.216406 c 0,0.3375 -0.274218,0.611719 -0.611718,0.611719 z m 0,0"
     style="fill:none;fill-opacity:1;fill-rule:evenodd;stroke:#000000;stroke-width:0.2551181;stroke-miterlimit:5.00699282;stroke-dasharray:none;stroke-opacity:1" />
  <path
     inkscape:connector-curvature="0"
     id="path438"
     d="m 30.055859,17.495898 h 2.552344 v -4.08164 h -2.552344 z m 0,0"
     style="fill:none;fill-opacity:1;fill-rule:evenodd;stroke:#000000;stroke-width:0.2551181;stroke-miterlimit:5.00699282;stroke-dasharray:none;stroke-opacity:1" />
  <path
     inkscape:connector-curvature="0"
     id="path440"
     d="m 37.145703,17.495898 h 2.552344 v -4.08164 h -2.552344 z m 0,0"
     style="fill:none;fill-opacity:1;fill-rule:evenodd;stroke:#000000;stroke-width:0.2551181;stroke-miterlimit:5.00699282;stroke-dasharray:none;stroke-opacity:1" />
  <path
     inkscape:connector-curvature="0"
     id="path442"
     d="m 44.231641,17.495898 h 2.552343 v -4.08164 h -2.552343 z m 0,0"
     style="fill:none;fill-opacity:1;fill-rule:evenodd;stroke:#000000;stroke-width:0.2551181;stroke-miterlimit:5.00699282;stroke-dasharray:none;stroke-opacity:1" />
  <path
     inkscape:connector-curvature="0"
     id="path444"
     d="m 30.055859,10.691211 h 2.552344 V 6.6095699 h -2.552344 z m 0,0"
     style="fill:none;fill-opacity:1;fill-rule:evenodd;stroke:#000000;stroke-width:0.2551181;stroke-miterlimit:5.00699282;stroke-dasharray:none;stroke-opacity:1" />
  <path
     inkscape:connector-curvature="0"
     id="path446"
     d="m 37.145703,10.691211 h 2.552344 V 6.6095699 h -2.552344 z m 0,0"
     style="fill:none;fill-opacity:1;fill-rule:evenodd;stroke:#000000;stroke-width:0.2551181;stroke-miterlimit:5.00699282;stroke-dasharray:none;stroke-opacity:1" />
  <path
     inkscape:connector-curvature="0"
     id="path448"
     d="m 44.231641,10.691211 h 2.552343 V 6.6095699 h -2.552343 z m 0,0"
     style="fill:none;fill-opacity:1;fill-rule:evenodd;stroke:#000000;stroke-width:0.2551181;stroke-miterlimit:5.00699282;stroke-dasharray:none;stroke-opacity:1" />
  <path
     inkscape:connector-curvature="0"
     id="path450"
     d="m 110.50039,66.579492 h 2.32734 c 0.34453,0 0.62227,0.277735 0.62227,0.622265 v 1.244532 c 0,0.341015 -0.27774,0.61875 -0.62227,0.61875 h -2.32734 c -0.34101,0 -0.62226,-0.277735 -0.62226,-0.61875 v -1.244532 c 0,-0.34453 0.28125,-0.622265 0.62226,-0.622265 z m 0,0"
     style="fill:none;fill-opacity:1;fill-rule:evenodd;stroke:#000000;stroke-width:0.2551181;stroke-miterlimit:5.00699282;stroke-dasharray:none;stroke-opacity:1" />
  <path
     inkscape:connector-curvature="0"
     id="path452"
     d="m 110.50039,61.263281 h 2.32734 c 0.34453,0 0.62227,0.277735 0.62227,0.622266 v 1.244531 c 0,0.344531 -0.27774,0.622266 -0.62227,0.622266 h -2.32734 c -0.34101,0 -0.62226,-0.277735 -0.62226,-0.622266 v -1.244531 c 0,-0.344531 0.28125,-0.622266 0.62226,-0.622266 z m 0,0"
     style="fill:none;fill-opacity:1;fill-rule:evenodd;stroke:#000000;stroke-width:0.2551181;stroke-miterlimit:5.00699282;stroke-dasharray:none;stroke-opacity:1" />
  <path
     inkscape:connector-curvature="0"
     id="path454"
     d="m 116.73281,52.344141 v 2.327343 c 0,0.344532 -0.28125,0.622266 -0.62226,0.622266 h -1.24453 c -0.34454,0 -0.62227,-0.277734 -0.62227,-0.622266 v -2.327343 c 0,-0.344532 0.27773,-0.622266 0.62227,-0.622266 h 1.24453 c 0.34101,0 0.62226,0.277734 0.62226,0.622266 z m 0,0"
     style="fill:none;fill-opacity:1;fill-rule:evenodd;stroke:#000000;stroke-width:0.2551181;stroke-miterlimit:5.00699282;stroke-dasharray:none;stroke-opacity:1" />
  <path
     inkscape:connector-curvature="0"
     id="path456"
     d="m 122.0455,52.344141 v 2.327343 c 0,0.344532 -0.27773,0.622267 -0.62226,0.622267 h -1.24101 c -0.34453,0 -0.62226,-0.277735 -0.62226,-0.622267 v -2.327343 c 0,-0.344532 0.27773,-0.622265 0.62226,-0.622265 h 1.24101 c 0.34453,0 0.62226,0.277733 0.62226,0.622265 z m 0,0"
     style="fill:none;fill-opacity:1;fill-rule:evenodd;stroke:#000000;stroke-width:0.2551181;stroke-miterlimit:5.00699282;stroke-dasharray:none;stroke-opacity:1" />
  <path
     inkscape:connector-curvature="0"
     id="path458"
     d="m 116.73281,46.223047 v 2.327344 c 0,0.344531 -0.28125,0.622265 -0.62226,0.622265 h -1.24453 c -0.34454,0 -0.62227,-0.277734 -0.62227,-0.622265 v -2.327344 c 0,-0.341016 0.27773,-0.622266 0.62227,-0.622266 h 1.24453 c 0.34101,0 0.62226,0.28125 0.62226,0.622266 z m 0,0"
     style="fill:none;fill-opacity:1;fill-rule:evenodd;stroke:#000000;stroke-width:0.2551181;stroke-miterlimit:5.00699282;stroke-dasharray:none;stroke-opacity:1" />
  <path
     inkscape:connector-curvature="0"
     id="path460"
     d="m 122.0455,46.223047 v 2.327344 c 0,0.344531 -0.27773,0.622266 -0.62226,0.622266 h -1.24101 c -0.34453,0 -0.62226,-0.277735 -0.62226,-0.622266 v -2.327344 c 0,-0.341015 0.27773,-0.622265 0.62226,-0.622265 h 1.24101 c 0.34453,0 0.62226,0.28125 0.62226,0.622265 z m 0,0"
     style="fill:none;fill-opacity:1;fill-rule:evenodd;stroke:#000000;stroke-width:0.2551181;stroke-miterlimit:5.00699282;stroke-dasharray:none;stroke-opacity:1" />
  <path
     inkscape:connector-curvature="0"
     id="path462"
     d="m 113.19062,35.670508 h -2.33085 c -0.34102,0 -0.62227,-0.277735 -0.62227,-0.622265 v -1.241017 c 0,-0.34453 0.28125,-0.622265 0.62227,-0.622265 h 2.33085 c 0.34102,0 0.61875,0.277735 0.61875,0.622265 v 1.241017 c 0,0.34453 -0.27773,0.622265 -0.61875,0.622265 z m 0,0"
     style="fill:none;fill-opacity:1;fill-rule:evenodd;stroke:#000000;stroke-width:0.2551181;stroke-miterlimit:5.00699282;stroke-dasharray:none;stroke-opacity:1" />
  <path
     inkscape:connector-curvature="0"
     id="path464"
     d="m 113.19062,40.986719 h -2.33085 c -0.34102,0 -0.62227,-0.277735 -0.62227,-0.622266 v -1.244531 c 0,-0.341016 0.28125,-0.622266 0.62227,-0.622266 h 2.33085 c 0.34102,0 0.61875,0.28125 0.61875,0.622266 v 1.244531 c 0,0.344531 -0.27773,0.622266 -0.61875,0.622266 z m 0,0"
     style="fill:none;fill-opacity:1;fill-rule:evenodd;stroke:#000000;stroke-width:0.2551181;stroke-miterlimit:5.00699282;stroke-dasharray:none;stroke-opacity:1" />
  <path
     inkscape:connector-curvature="0"
     id="path466"
     d="m 107.06992,35.670508 h -2.32734 c -0.34453,0 -0.62226,-0.277735 -0.62226,-0.622265 v -1.241017 c 0,-0.34453 0.27773,-0.622265 0.62226,-0.622265 h 2.32734 c 0.34453,0 0.62227,0.277735 0.62227,0.622265 v 1.241017 c 0,0.34453 -0.27774,0.622265 -0.62227,0.622265 z m 0,0"
     style="fill:none;fill-opacity:1;fill-rule:evenodd;stroke:#000000;stroke-width:0.2551181;stroke-miterlimit:5.00699282;stroke-dasharray:none;stroke-opacity:1" />
  <path
     inkscape:connector-curvature="0"
     id="path468"
     d="m 107.06992,40.986719 h -2.32734 c -0.34453,0 -0.62226,-0.277735 -0.62226,-0.622266 v -1.244531 c 0,-0.341016 0.27773,-0.622266 0.62226,-0.622266 h 2.32734 c 0.34453,0 0.62227,0.28125 0.62227,0.622266 v 1.244531 c 0,0.344531 -0.27774,0.622266 -0.62227,0.622266 z m 0,0"
     style="fill:none;fill-opacity:1;fill-rule:evenodd;stroke:#000000;stroke-width:0.2551181;stroke-miterlimit:5.00699282;stroke-dasharray:none;stroke-opacity:1" />
  <path
     inkscape:connector-curvature="0"
     id="path470"
     d="m 98.262109,66.579492 h 2.327341 c 0.34453,0 0.62227,0.277735 0.62227,0.622265 v 1.244532 c 0,0.341015 -0.27774,0.61875 -0.62227,0.61875 h -2.327341 c -0.344531,0 -0.622265,-0.277735 -0.622265,-0.61875 v -1.244532 c 0,-0.34453 0.277734,-0.622265 0.622265,-0.622265 z m 0,0"
     style="fill:none;fill-opacity:1;fill-rule:evenodd;stroke:#000000;stroke-width:0.2551181;stroke-miterlimit:5.00699282;stroke-dasharray:none;stroke-opacity:1" />
  <path
     inkscape:connector-curvature="0"
     id="path472"
     d="m 98.262109,61.263281 h 2.327341 c 0.34453,0 0.62227,0.277735 0.62227,0.622266 v 1.244531 c 0,0.344531 -0.27774,0.622266 -0.62227,0.622266 h -2.327341 c -0.344531,0 -0.622265,-0.277735 -0.622265,-0.622266 v -1.244531 c 0,-0.344531 0.277734,-0.622266 0.622265,-0.622266 z m 0,0"
     style="fill:none;fill-opacity:1;fill-rule:evenodd;stroke:#000000;stroke-width:0.2551181;stroke-miterlimit:5.00699282;stroke-dasharray:none;stroke-opacity:1" />
  <path
     inkscape:connector-curvature="0"
     id="path474"
     d="m 106.71054,63.752344 h -2.33085 c -0.34102,0 -0.61875,-0.277735 -0.61875,-0.622266 v -1.244531 c 0,-0.344531 0.27773,-0.622266 0.61875,-0.622266 h 2.33085 c 0.34102,0 0.62227,0.277735 0.62227,0.622266 v 1.244531 c 0,0.344531 -0.28125,0.622266 -0.62227,0.622266 z m 0,0"
     style="fill:none;fill-opacity:1;fill-rule:evenodd;stroke:#000000;stroke-width:0.2551181;stroke-miterlimit:5.00699282;stroke-dasharray:none;stroke-opacity:1" />
  <path
     inkscape:connector-curvature="0"
     id="path476"
     d="m 106.71054,69.065039 h -2.33085 c -0.34102,0 -0.61875,-0.277735 -0.61875,-0.61875 v -1.244532 c 0,-0.34453 0.27773,-0.622265 0.61875,-0.622265 h 2.33085 c 0.34102,0 0.62227,0.277735 0.62227,0.622265 v 1.244532 c 0,0.341015 -0.28125,0.61875 -0.62227,0.61875 z m 0,0"
     style="fill:none;fill-opacity:1;fill-rule:evenodd;stroke:#000000;stroke-width:0.2551181;stroke-miterlimit:5.00699282;stroke-dasharray:none;stroke-opacity:1" />
  <path
     inkscape:connector-curvature="0"
     id="path478"
     d="m 21.390234,49.436133 h -2.327343 c -0.344532,0 -0.622266,-0.277735 -0.622266,-0.622266 v -1.241016 c 0,-0.34453 0.277734,-0.622265 0.622266,-0.622265 h 2.327343 c 0.341017,0 0.622267,0.277735 0.622267,0.622265 v 1.241016 c 0,0.344531 -0.28125,0.622266 -0.622267,0.622266 z m 0,0"
     style="fill:none;fill-opacity:1;fill-rule:evenodd;stroke:#000000;stroke-width:0.2551181;stroke-miterlimit:5.00699282;stroke-dasharray:none;stroke-opacity:1" />
  <path
     inkscape:connector-curvature="0"
     id="path480"
     d="m 21.390234,54.752344 h -2.327343 c -0.344532,0 -0.622266,-0.277735 -0.622266,-0.622266 v -1.244531 c 0,-0.344531 0.277734,-0.622266 0.622266,-0.622266 h 2.327343 c 0.341017,0 0.622267,0.277735 0.622267,0.622266 v 1.244531 c 0,0.344531 -0.28125,0.622266 -0.622267,0.622266 z m 0,0"
     style="fill:none;fill-opacity:1;fill-rule:evenodd;stroke:#000000;stroke-width:0.2551181;stroke-miterlimit:5.00699282;stroke-dasharray:none;stroke-opacity:1" />
  <path
     inkscape:connector-curvature="0"
     id="path482"
     d="m 29.475,79.344141 v 2.327343 c 0,0.344532 -0.277734,0.622267 -0.622266,0.622267 h -1.244531 c -0.344531,0 -0.622266,-0.277735 -0.622266,-0.622267 v -2.327343 c 0,-0.344532 0.277735,-0.622266 0.622266,-0.622266 h 1.244531 c 0.344532,0 0.622266,0.277734 0.622266,0.622266 z m 0,0"
     style="fill:none;fill-opacity:1;fill-rule:evenodd;stroke:#000000;stroke-width:0.2551181;stroke-miterlimit:5.00699282;stroke-dasharray:none;stroke-opacity:1" />
  <path
     inkscape:connector-curvature="0"
     id="path484"
     d="m 34.787695,79.344141 v 2.327343 c 0,0.344532 -0.277734,0.622266 -0.622265,0.622266 h -1.241016 c -0.344531,0 -0.622266,-0.277734 -0.622266,-0.622266 v -2.327343 c 0,-0.344532 0.277735,-0.622266 0.622266,-0.622266 h 1.241016 c 0.344531,0 0.622265,0.277734 0.622265,0.622266 z m 0,0"
     style="fill:none;fill-opacity:1;fill-rule:evenodd;stroke:#000000;stroke-width:0.2551181;stroke-miterlimit:5.00699282;stroke-dasharray:none;stroke-opacity:1" />
  <path
     inkscape:connector-curvature="0"
     id="path486"
     d="m 32.302148,75.191015 v -2.327343 c 0,-0.344532 0.277735,-0.622266 0.622266,-0.622266 h 1.241016 c 0.344531,0 0.622265,0.277734 0.622265,0.622266 v 2.327343 c 0,0.344532 -0.277734,0.622266 -0.622265,0.622266 h -1.241016 c -0.344531,0 -0.622266,-0.277734 -0.622266,-0.622266 z m 0,0"
     style="fill:none;fill-opacity:1;fill-rule:evenodd;stroke:#000000;stroke-width:0.2551181;stroke-miterlimit:5.00699282;stroke-dasharray:none;stroke-opacity:1" />
  <path
     inkscape:connector-curvature="0"
     id="path488"
     d="m 26.985937,75.191015 v -2.327343 c 0,-0.344532 0.277735,-0.622266 0.622266,-0.622266 h 1.244531 c 0.344532,0 0.622266,0.277734 0.622266,0.622266 v 2.327343 c 0,0.344532 -0.277734,0.622266 -0.622266,0.622266 h -1.244531 c -0.344531,0 -0.622266,-0.277734 -0.622266,-0.622266 z m 0,0"
     style="fill:none;fill-opacity:1;fill-rule:evenodd;stroke:#000000;stroke-width:0.2551181;stroke-miterlimit:5.00699282;stroke-dasharray:none;stroke-opacity:1" />
  <path
     inkscape:connector-curvature="0"
     id="path490"
     d="m 38.859766,66.939062 h 2.330858 c 0.341017,0 0.61875,0.277735 0.61875,0.622267 v 1.24453 c 0,0.341016 -0.277733,0.622266 -0.61875,0.622266 h -2.330858 c -0.341017,0 -0.622267,-0.28125 -0.622267,-0.622266 v -1.24453 c 0,-0.344532 0.28125,-0.622267 0.622267,-0.622267 z m 0,0"
     style="fill:none;fill-opacity:1;fill-rule:evenodd;stroke:#000000;stroke-width:0.2551181;stroke-miterlimit:5.00699282;stroke-dasharray:none;stroke-opacity:1" />
  <path
     inkscape:connector-curvature="0"
     id="path492"
     d="m 38.859766,61.622656 h 2.330858 c 0.341017,0 0.61875,0.28125 0.61875,0.622266 v 1.244531 c 0,0.344531 -0.277733,0.622266 -0.61875,0.622266 h -2.330858 c -0.341017,0 -0.622267,-0.277735 -0.622267,-0.622266 v -1.244531 c 0,-0.341016 0.28125,-0.622266 0.622267,-0.622266 z m 0,0"
     style="fill:none;fill-opacity:1;fill-rule:evenodd;stroke:#000000;stroke-width:0.2551181;stroke-miterlimit:5.00699282;stroke-dasharray:none;stroke-opacity:1" />
  <path
     inkscape:connector-curvature="0"
     id="path494"
     d="m 48.141992,26.952734 v -2.327343 c 0,-0.344532 0.277735,-0.622265 0.622265,-0.622265 h 1.241017 c 0.34453,0 0.622265,0.277733 0.622265,0.622265 v 2.327343 c 0,0.341017 -0.277735,0.622267 -0.622265,0.622267 h -1.241017 c -0.34453,0 -0.622265,-0.28125 -0.622265,-0.622267 z m 0,0"
     style="fill:none;fill-opacity:1;fill-rule:evenodd;stroke:#000000;stroke-width:0.2551181;stroke-miterlimit:5.00699282;stroke-dasharray:none;stroke-opacity:1" />
  <path
     inkscape:connector-curvature="0"
     id="path496"
     d="m 42.825781,26.952734 v -2.327343 c 0,-0.344532 0.277735,-0.622265 0.622266,-0.622265 h 1.244531 c 0.344531,0 0.622266,0.277733 0.622266,0.622265 v 2.327343 c 0,0.341017 -0.277735,0.622267 -0.622266,0.622267 h -1.244531 c -0.344531,0 -0.622266,-0.28125 -0.622266,-0.622267 z m 0,0"
     style="fill:none;fill-opacity:1;fill-rule:evenodd;stroke:#000000;stroke-width:0.2551181;stroke-miterlimit:5.00699282;stroke-dasharray:none;stroke-opacity:1" />
  <path
     inkscape:connector-curvature="0"
     id="path498"
     d="m 48.141992,32.710547 v -2.327344 c 0,-0.341015 0.277735,-0.622265 0.622265,-0.622265 h 1.241017 c 0.34453,0 0.622265,0.28125 0.622265,0.622265 v 2.327344 c 0,0.344531 -0.277735,0.622266 -0.622265,0.622266 h -1.241017 c -0.34453,0 -0.622265,-0.277735 -0.622265,-0.622266 z m 0,0"
     style="fill:none;fill-opacity:1;fill-rule:evenodd;stroke:#000000;stroke-width:0.2551181;stroke-miterlimit:5.00699282;stroke-dasharray:none;stroke-opacity:1" />
  <path
     inkscape:connector-curvature="0"
     id="path500"
     d="m 42.825781,32.710547 v -2.327344 c 0,-0.341015 0.277735,-0.622265 0.622266,-0.622265 h 1.244531 c 0.344531,0 0.622266,0.28125 0.622266,0.622265 v 2.327344 c 0,0.344531 -0.277735,0.622266 -0.622266,0.622266 h -1.244531 c -0.344531,0 -0.622266,-0.277735 -0.622266,-0.622266 z m 0,0"
     style="fill:none;fill-opacity:1;fill-rule:evenodd;stroke:#000000;stroke-width:0.2551181;stroke-miterlimit:5.00699282;stroke-dasharray:none;stroke-opacity:1" />
  <path
     inkscape:connector-curvature="0"
     id="path502"
     d="m 47.667578,64.111719 h -2.327343 c -0.341017,0 -0.622267,-0.277735 -0.622267,-0.622266 v -1.244531 c 0,-0.341016 0.28125,-0.622266 0.622267,-0.622266 h 2.327343 c 0.344532,0 0.622266,0.28125 0.622266,0.622266 v 1.244531 c 0,0.344531 -0.277734,0.622266 -0.622266,0.622266 z m 0,0"
     style="fill:none;fill-opacity:1;fill-rule:evenodd;stroke:#000000;stroke-width:0.2551181;stroke-miterlimit:5.00699282;stroke-dasharray:none;stroke-opacity:1" />
  <path
     inkscape:connector-curvature="0"
     id="path504"
     d="m 47.667578,69.428125 h -2.327343 c -0.341017,0 -0.622267,-0.28125 -0.622267,-0.622266 v -1.24453 c 0,-0.344532 0.28125,-0.622267 0.622267,-0.622267 h 2.327343 c 0.344532,0 0.622266,0.277735 0.622266,0.622267 v 1.24453 c 0,0.341016 -0.277734,0.622266 -0.622266,0.622266 z m 0,0"
     style="fill:none;fill-opacity:1;fill-rule:evenodd;stroke:#000000;stroke-width:0.2551181;stroke-miterlimit:5.00699282;stroke-dasharray:none;stroke-opacity:1" />
  <path
     inkscape:connector-curvature="0"
     id="path506"
     d="m 51.820703,66.939062 h 2.327344 c 0.344531,0 0.622265,0.277735 0.622265,0.622267 v 1.24453 c 0,0.341016 -0.277734,0.622266 -0.622265,0.622266 h -2.327344 c -0.344531,0 -0.622266,-0.28125 -0.622266,-0.622266 v -1.24453 c 0,-0.344532 0.277735,-0.622267 0.622266,-0.622267 z m 0,0"
     style="fill:none;fill-opacity:1;fill-rule:evenodd;stroke:#000000;stroke-width:0.2551181;stroke-miterlimit:5.00699282;stroke-dasharray:none;stroke-opacity:1" />
  <path
     inkscape:connector-curvature="0"
     id="path508"
     d="m 51.820703,61.622656 h 2.327344 c 0.344531,0 0.622265,0.28125 0.622265,0.622266 v 1.244531 c 0,0.344531 -0.277734,0.622266 -0.622265,0.622266 h -2.327344 c -0.344531,0 -0.622266,-0.277735 -0.622266,-0.622266 v -1.244531 c 0,-0.341016 0.277735,-0.622266 0.622266,-0.622266 z m 0,0"
     style="fill:none;fill-opacity:1;fill-rule:evenodd;stroke:#000000;stroke-width:0.2551181;stroke-miterlimit:5.00699282;stroke-dasharray:none;stroke-opacity:1" />
  <path
     inkscape:connector-curvature="0"
     id="path510"
     d="m 32.302148,68.710547 v -2.327344 c 0,-0.341016 0.277735,-0.622266 0.622266,-0.622266 h 1.241016 c 0.344531,0 0.622265,0.28125 0.622265,0.622266 v 2.327344 c 0,0.344531 -0.277734,0.622265 -0.622265,0.622265 h -1.241016 c -0.344531,0 -0.622266,-0.277734 -0.622266,-0.622265 z m 0,0"
     style="fill:none;fill-opacity:1;fill-rule:evenodd;stroke:#000000;stroke-width:0.2551181;stroke-miterlimit:5.00699282;stroke-dasharray:none;stroke-opacity:1" />
  <path
     inkscape:connector-curvature="0"
     id="path512"
     d="m 26.985937,68.710547 v -2.327344 c 0,-0.341016 0.277735,-0.622266 0.622266,-0.622266 h 1.244531 c 0.344532,0 0.622266,0.28125 0.622266,0.622266 v 2.327344 c 0,0.344531 -0.277734,0.622265 -0.622266,0.622265 h -1.244531 c -0.344531,0 -0.622266,-0.277734 -0.622266,-0.622265 z m 0,0"
     style="fill:none;fill-opacity:1;fill-rule:evenodd;stroke:#000000;stroke-width:0.2551181;stroke-miterlimit:5.00699282;stroke-dasharray:none;stroke-opacity:1" />
  <path
     inkscape:connector-curvature="0"
     id="path514"
     d="m 29.389063,85.824609 v 2.327344 c 0,0.344531 -0.277735,0.622265 -0.622266,0.622265 H 27.522266 C 27.18125,88.774218 26.9,88.496484 26.9,88.151953 v -2.327344 c 0,-0.344531 0.28125,-0.622266 0.622266,-0.622266 h 1.244531 c 0.344531,0 0.622266,0.277735 0.622266,0.622266 z m 0,0"
     style="fill:none;fill-opacity:1;fill-rule:evenodd;stroke:#000000;stroke-width:0.2551181;stroke-miterlimit:5.00699282;stroke-dasharray:none;stroke-opacity:1" />
  <path
     inkscape:connector-curvature="0"
     id="path516"
     d="m 34.705469,85.824609 v 2.327344 c 0,0.344531 -0.28125,0.622265 -0.622266,0.622265 h -1.244531 c -0.344531,0 -0.622266,-0.277734 -0.622266,-0.622265 v -2.327344 c 0,-0.344531 0.277735,-0.622266 0.622266,-0.622266 h 1.244531 c 0.341016,0 0.622266,0.277735 0.622266,0.622266 z m 0,0"
     style="fill:none;fill-opacity:1;fill-rule:evenodd;stroke:#000000;stroke-width:0.2551181;stroke-miterlimit:5.00699282;stroke-dasharray:none;stroke-opacity:1" />
  <path
     inkscape:connector-curvature="0"
     id="path518"
     d="m 34.180078,29.497656 h 2.327344 c 0.344531,0 0.622265,0.28125 0.622265,0.622266 v 1.244531 c 0,0.344531 -0.277734,0.622266 -0.622265,0.622266 h -2.327344 c -0.341016,0 -0.622266,-0.277735 -0.622266,-0.622266 v -1.244531 c 0,-0.341016 0.28125,-0.622266 0.622266,-0.622266 z m 0,0"
     style="fill:none;fill-opacity:1;fill-rule:evenodd;stroke:#000000;stroke-width:0.2551181;stroke-miterlimit:5.00699282;stroke-dasharray:none;stroke-opacity:1" />
  <path
     inkscape:connector-curvature="0"
     id="path520"
     d="m 34.180078,24.184961 h 2.327344 c 0.344531,0 0.622265,0.277735 0.622265,0.622265 v 1.241017 c 0,0.34453 -0.277734,0.622265 -0.622265,0.622265 h -2.327344 c -0.341015,0 -0.622265,-0.277735 -0.622265,-0.622265 v -1.241017 c 0,-0.34453 0.28125,-0.622265 0.622265,-0.622265 z m 0,0"
     style="fill:none;fill-opacity:1;fill-rule:evenodd;stroke:#000000;stroke-width:0.2551181;stroke-miterlimit:5.00699282;stroke-dasharray:none;stroke-opacity:1" />
  <path
     inkscape:connector-curvature="0"
     id="path522"
     d="m 28.422266,29.497656 h 2.327343 c 0.344532,0 0.622265,0.28125 0.622265,0.622266 v 1.244531 c 0,0.344531 -0.277733,0.622266 -0.622265,0.622266 h -2.327343 c -0.344532,0 -0.622267,-0.277735 -0.622267,-0.622266 v -1.244531 c 0,-0.341016 0.277735,-0.622266 0.622267,-0.622266 z m 0,0"
     style="fill:none;fill-opacity:1;fill-rule:evenodd;stroke:#000000;stroke-width:0.2551181;stroke-miterlimit:5.00699282;stroke-dasharray:none;stroke-opacity:1" />
  <path
     inkscape:connector-curvature="0"
     id="path524"
     d="m 28.422266,24.184961 h 2.327343 c 0.344532,0 0.622265,0.277735 0.622265,0.622265 v 1.241017 c 0,0.34453 -0.277733,0.622265 -0.622265,0.622265 H 28.422266 C 28.077734,26.670508 27.8,26.392773 27.8,26.048243 v -1.241017 c 0,-0.34453 0.277734,-0.622265 0.622266,-0.622265 z m 0,0"
     style="fill:none;fill-opacity:1;fill-rule:evenodd;stroke:#000000;stroke-width:0.2551181;stroke-miterlimit:5.00699282;stroke-dasharray:none;stroke-opacity:1" />
  <path
     inkscape:connector-curvature="0"
     id="path526"
     d="m 91.961328,61.30625 h 2.327344 c 0.344531,0 0.622266,0.277734 0.622266,0.622266 v 1.244531 c 0,0.341016 -0.277735,0.622266 -0.622266,0.622266 h -2.327344 c -0.344531,0 -0.622266,-0.28125 -0.622266,-0.622266 v -1.244531 c 0,-0.344532 0.277735,-0.622266 0.622266,-0.622266 z m 0,0"
     style="fill:none;fill-opacity:1;fill-rule:evenodd;stroke:#000000;stroke-width:0.2551181;stroke-miterlimit:5.00699282;stroke-dasharray:none;stroke-opacity:1" />
  <path
     inkscape:connector-curvature="0"
     id="path528"
     d="m 91.961328,66.622461 h 2.327344 c 0.344531,0 0.622266,0.277735 0.622266,0.622265 v 1.241017 c 0,0.34453 -0.277735,0.622265 -0.622266,0.622265 h -2.327344 c -0.344531,0 -0.622266,-0.277735 -0.622266,-0.622265 v -1.241017 c 0,-0.34453 0.277735,-0.622265 0.622266,-0.622265 z m 0,0"
     style="fill:none;fill-opacity:1;fill-rule:evenodd;stroke:#000000;stroke-width:0.2551181;stroke-miterlimit:5.00699282;stroke-dasharray:none;stroke-opacity:1" />
  <path
     inkscape:connector-curvature="0"
     id="path530"
     d="m 100.94883,41.029688 h -2.327345 c -0.344532,0 -0.622267,-0.277735 -0.622267,-0.622267 v -1.24453 c 0,-0.341016 0.277735,-0.622266 0.622267,-0.622266 h 2.327345 c 0.34453,0 0.62226,0.28125 0.62226,0.622266 v 1.24453 c 0,0.344532 -0.27773,0.622267 -0.62226,0.622267 z m 0,0"
     style="fill:none;fill-opacity:1;fill-rule:evenodd;stroke:#000000;stroke-width:0.2551181;stroke-miterlimit:5.00699282;stroke-dasharray:none;stroke-opacity:1" />
  <path
     inkscape:connector-curvature="0"
     id="path532"
     d="m 100.94883,35.713476 h -2.327345 c -0.344532,0 -0.622267,-0.277734 -0.622267,-0.622265 v -1.241016 c 0,-0.34453 0.277735,-0.622265 0.622267,-0.622265 h 2.327345 c 0.34453,0 0.62226,0.277735 0.62226,0.622265 v 1.241016 c 0,0.344531 -0.27773,0.622265 -0.62226,0.622265 z m 0,0"
     style="fill:none;fill-opacity:1;fill-rule:evenodd;stroke:#000000;stroke-width:0.2551181;stroke-miterlimit:5.00699282;stroke-dasharray:none;stroke-opacity:1" />
  <path
     inkscape:connector-curvature="0"
     id="path534"
     d="m 98.869531,21.742578 v 2.330859 c 0,0.341016 -0.277734,0.61875 -0.622266,0.61875 h -1.24453 c -0.344532,0 -0.622266,-0.277734 -0.622266,-0.61875 v -2.330859 c 0,-0.341016 0.277734,-0.622265 0.622266,-0.622265 h 1.24453 c 0.344532,0 0.622266,0.281249 0.622266,0.622265 z m 0,0"
     style="fill:none;fill-opacity:1;fill-rule:evenodd;stroke:#000000;stroke-width:0.2551181;stroke-miterlimit:5.00699282;stroke-dasharray:none;stroke-opacity:1" />
  <path
     inkscape:connector-curvature="0"
     id="path536"
     d="m 93.55332,21.742578 v 2.330859 c 0,0.341016 -0.277734,0.61875 -0.622265,0.61875 h -1.241016 c -0.344531,0 -0.622265,-0.277734 -0.622265,-0.61875 v -2.330859 c 0,-0.341015 0.277734,-0.622265 0.622265,-0.622265 h 1.241016 c 0.344531,0 0.622265,0.28125 0.622265,0.622265 z m 0,0"
     style="fill:none;fill-opacity:1;fill-rule:evenodd;stroke:#000000;stroke-width:0.2551181;stroke-miterlimit:5.00699282;stroke-dasharray:none;stroke-opacity:1" />
  <path
     inkscape:connector-curvature="0"
     id="path538"
     d="m 137.74863,7.3441409 v 2.3273433 c 0,0.3445318 -0.27774,0.6222668 -0.62227,0.6222668 h -1.24452 c -0.34102,0 -0.61875,-0.277735 -0.61875,-0.6222668 V 7.3441409 c 0,-0.3445317 0.27773,-0.6222654 0.61875,-0.6222654 h 1.24452 c 0.34453,0 0.62227,0.2777337 0.62227,0.6222654 z m 0,0"
     style="fill:none;fill-opacity:1;fill-rule:evenodd;stroke:#000000;stroke-width:0.2551181;stroke-miterlimit:5.00699282;stroke-dasharray:none;stroke-opacity:1" />
  <path
     inkscape:connector-curvature="0"
     id="path540"
     d="m 143.06484,7.3441409 v 2.3273433 c 0,0.3445318 -0.27773,0.6222668 -0.62226,0.6222668 h -1.24453 c -0.34454,0 -0.62227,-0.277735 -0.62227,-0.6222668 V 7.3441409 c 0,-0.3445317 0.27773,-0.6222654 0.62227,-0.6222654 h 1.24453 c 0.34453,0 0.62226,0.2777337 0.62226,0.6222654 z m 0,0"
     style="fill:none;fill-opacity:1;fill-rule:evenodd;stroke:#000000;stroke-width:0.2551181;stroke-miterlimit:5.00699282;stroke-dasharray:none;stroke-opacity:1" />
  <path
     inkscape:connector-curvature="0"
     id="path542"
     d="m 110.483,21.742578 v 2.330859 c 0,0.341016 -0.27773,0.61875 -0.62226,0.61875 h -1.24101 c -0.34453,0 -0.62226,-0.277734 -0.62226,-0.61875 v -2.330859 c 0,-0.341015 0.27773,-0.622265 0.62226,-0.622265 h 1.24101 c 0.34453,0 0.62226,0.28125 0.62226,0.622265 z m 0,0"
     style="fill:none;fill-opacity:1;fill-rule:evenodd;stroke:#000000;stroke-width:0.2551181;stroke-miterlimit:5.00699282;stroke-dasharray:none;stroke-opacity:1" />
  <path
     inkscape:connector-curvature="0"
     id="path544"
     d="m 105.17031,21.742578 v 2.330859 c 0,0.341016 -0.28125,0.61875 -0.62226,0.61875 h -1.24453 c -0.34454,0 -0.62227,-0.277734 -0.62227,-0.61875 v -2.330859 c 0,-0.341015 0.27773,-0.622265 0.62227,-0.622265 h 1.24453 c 0.34101,0 0.62226,0.28125 0.62226,0.622265 z m 0,0"
     style="fill:none;fill-opacity:1;fill-rule:evenodd;stroke:#000000;stroke-width:0.2551181;stroke-miterlimit:5.00699282;stroke-dasharray:none;stroke-opacity:1" />
  <path
     inkscape:connector-curvature="0"
     id="path546"
     d="m 119.42325,24.073437 v -2.330859 c 0,-0.341015 0.27773,-0.622265 0.61875,-0.622265 h 1.24452 c 0.34453,0 0.62227,0.28125 0.62227,0.622265 v 2.330859 c 0,0.341016 -0.27774,0.61875 -0.62227,0.61875 H 120.042 c -0.34102,0 -0.61875,-0.277734 -0.61875,-0.61875 z m 0,0"
     style="fill:none;fill-opacity:1;fill-rule:evenodd;stroke:#000000;stroke-width:0.2551181;stroke-miterlimit:5.00699282;stroke-dasharray:none;stroke-opacity:1" />
  <path
     inkscape:connector-curvature="0"
     id="path548"
     d="m 114.10684,24.073437 v -2.330859 c 0,-0.341015 0.27773,-0.622265 0.62227,-0.622265 h 1.24452 c 0.34102,0 0.61875,0.28125 0.61875,0.622265 v 2.330859 c 0,0.341016 -0.27773,0.61875 -0.61875,0.61875 h -1.24452 c -0.34454,0 -0.62227,-0.277734 -0.62227,-0.61875 z m 0,0"
     style="fill:none;fill-opacity:1;fill-rule:evenodd;stroke:#000000;stroke-width:0.2551181;stroke-miterlimit:5.00699282;stroke-dasharray:none;stroke-opacity:1" />
  <path
     inkscape:connector-curvature="0"
     id="path550"
     d="m 39.042774,50.148242 h 4.848046 v -4.08164 h -4.848046 z m 0,0"
     style="fill:none;fill-opacity:1;fill-rule:evenodd;stroke:#000000;stroke-width:0.2551181;stroke-miterlimit:5.00699282;stroke-dasharray:none;stroke-opacity:1" />
  <path
     inkscape:connector-curvature="0"
     id="path552"
     d="m 50.663867,50.148242 h 4.848047 v -4.08164 h -4.848047 z m 0,0"
     style="fill:none;fill-opacity:1;fill-rule:evenodd;stroke:#000000;stroke-width:0.2551181;stroke-miterlimit:5.00699282;stroke-dasharray:none;stroke-opacity:1" />
  <path
     inkscape:connector-curvature="0"
     id="path554"
     d="m 30.543555,51.754883 h 3.315234 v -1.529297 h -3.315234 z m 0,0"
     style="fill:none;fill-opacity:1;fill-rule:evenodd;stroke:#000000;stroke-width:0.2551181;stroke-miterlimit:5.00699282;stroke-dasharray:none;stroke-opacity:1" />
  <path
     inkscape:connector-curvature="0"
     id="path556"
     d="m 24.59043,54.446289 h 3.315234 V 52.916992 H 24.59043 Z m 0,0"
     style="fill:none;fill-opacity:1;fill-rule:evenodd;stroke:#000000;stroke-width:0.2551181;stroke-miterlimit:5.00699282;stroke-dasharray:none;stroke-opacity:1" />
  <path
     inkscape:connector-curvature="0"
     id="path558"
     d="m 24.59043,49.05957 h 3.315234 V 47.530273 H 24.59043 Z m 0,0"
     style="fill:none;fill-opacity:1;fill-rule:evenodd;stroke:#000000;stroke-width:0.2551181;stroke-miterlimit:5.00699282;stroke-dasharray:none;stroke-opacity:1" />
  <path
     inkscape:connector-curvature="0"
     id="path560"
     d="m 101.06836,57.531641 h -0.3164 c -0.0879,0 -0.16172,-0.07032 -0.16172,-0.158204 V 55.5875 c 0,-0.08789 0.0738,-0.158203 0.16172,-0.158203 h 0.3164 c 0.0914,0 0.16172,0.07032 0.16172,0.158203 v 1.785937 c 0,0.08789 -0.0703,0.158204 -0.16172,0.158204 z m 0,0"
     style="fill:none;fill-opacity:1;fill-rule:evenodd;stroke:#000000;stroke-width:0.2551181;stroke-miterlimit:5.00699282;stroke-dasharray:none;stroke-opacity:1" />
  <path
     inkscape:connector-curvature="0"
     id="path562"
     d="m 102.48633,57.531641 h -0.31641 c -0.0879,0 -0.16171,-0.07032 -0.16171,-0.158204 V 55.5875 c 0,-0.08789 0.0738,-0.158203 0.16171,-0.158203 h 0.31641 c 0.0879,0 0.16171,0.07032 0.16171,0.158203 v 1.785937 c 0,0.08789 -0.0738,0.158204 -0.16171,0.158204 z m 0,0"
     style="fill:none;fill-opacity:1;fill-rule:evenodd;stroke:#000000;stroke-width:0.2551181;stroke-miterlimit:5.00699282;stroke-dasharray:none;stroke-opacity:1" />
  <path
     inkscape:connector-curvature="0"
     id="path564"
     d="m 103.90411,57.531641 h -0.31993 c -0.0879,0 -0.1582,-0.07032 -0.1582,-0.158204 V 55.5875 c 0,-0.08789 0.0703,-0.158203 0.1582,-0.158203 h 0.31993 c 0.0879,0 0.1582,0.07032 0.1582,0.158203 v 1.785937 c 0,0.08789 -0.0703,0.158204 -0.1582,0.158204 z m 0,0"
     style="fill:none;fill-opacity:1;fill-rule:evenodd;stroke:#000000;stroke-width:0.2551181;stroke-miterlimit:5.00699282;stroke-dasharray:none;stroke-opacity:1" />
  <path
     inkscape:connector-curvature="0"
     id="path566"
     d="m 105.32207,57.531641 h -0.31992 c -0.0879,0 -0.15821,-0.07032 -0.15821,-0.158204 V 55.5875 c 0,-0.08789 0.0703,-0.158203 0.15821,-0.158203 h 0.31992 c 0.0879,0 0.15821,0.07032 0.15821,0.158203 v 1.785937 c 0,0.08789 -0.0703,0.158204 -0.15821,0.158204 z m 0,0"
     style="fill:none;fill-opacity:1;fill-rule:evenodd;stroke:#000000;stroke-width:0.2551181;stroke-miterlimit:5.00699282;stroke-dasharray:none;stroke-opacity:1" />
  <path
     inkscape:connector-curvature="0"
     id="path568"
     d="m 106.74004,57.531641 h -0.31993 c -0.0879,0 -0.1582,-0.07032 -0.1582,-0.158204 V 55.5875 c 0,-0.08789 0.0703,-0.158203 0.1582,-0.158203 h 0.31993 c 0.0879,0 0.1582,0.07032 0.1582,0.158203 v 1.785937 c 0,0.08789 -0.0703,0.158204 -0.1582,0.158204 z m 0,0"
     style="fill:none;fill-opacity:1;fill-rule:evenodd;stroke:#000000;stroke-width:0.2551181;stroke-miterlimit:5.00699282;stroke-dasharray:none;stroke-opacity:1" />
  <path
     inkscape:connector-curvature="0"
     id="path570"
     d="m 110.13106,54.140429 h -1.78595 c -0.0879,0 -0.16171,-0.07032 -0.16171,-0.158202 v -0.319923 c 0,-0.08789 0.0738,-0.158202 0.16171,-0.158202 h 1.78595 c 0.0879,0 0.1582,0.07032 0.1582,0.158202 v 0.319923 c 0,0.08789 -0.0703,0.158202 -0.1582,0.158202 z m 0,0"
     style="fill:none;fill-opacity:1;fill-rule:evenodd;stroke:#000000;stroke-width:0.2551181;stroke-miterlimit:5.00699282;stroke-dasharray:none;stroke-opacity:1" />
  <path
     inkscape:connector-curvature="0"
     id="path572"
     d="m 110.13106,52.72246 h -1.78595 c -0.0879,0 -0.16171,-0.07031 -0.16171,-0.158202 v -0.319923 c 0,-0.08789 0.0738,-0.158202 0.16171,-0.158202 h 1.78595 c 0.0879,0 0.1582,0.07032 0.1582,0.158202 v 0.319923 c 0,0.08789 -0.0703,0.158202 -0.1582,0.158202 z m 0,0"
     style="fill:none;fill-opacity:1;fill-rule:evenodd;stroke:#000000;stroke-width:0.2551181;stroke-miterlimit:5.00699282;stroke-dasharray:none;stroke-opacity:1" />
  <path
     inkscape:connector-curvature="0"
     id="path574"
     d="m 110.13106,51.308203 h -1.78595 c -0.0879,0 -0.16171,-0.07383 -0.16171,-0.161719 v -0.316406 c 0,-0.08789 0.0738,-0.161719 0.16171,-0.161719 h 1.78595 c 0.0879,0 0.1582,0.07383 0.1582,0.161719 v 0.316406 c 0,0.08789 -0.0703,0.161719 -0.1582,0.161719 z m 0,0"
     style="fill:none;fill-opacity:1;fill-rule:evenodd;stroke:#000000;stroke-width:0.2551181;stroke-miterlimit:5.00699282;stroke-dasharray:none;stroke-opacity:1" />
  <path
     inkscape:connector-curvature="0"
     id="path576"
     d="m 110.13106,49.890234 h -1.78595 c -0.0879,0 -0.16171,-0.07383 -0.16171,-0.161718 v -0.316407 c 0,-0.08789 0.0738,-0.161718 0.16171,-0.161718 h 1.78595 c 0.0879,0 0.1582,0.07383 0.1582,0.161718 v 0.316407 c 0,0.08789 -0.0703,0.161718 -0.1582,0.161718 z m 0,0"
     style="fill:none;fill-opacity:1;fill-rule:evenodd;stroke:#000000;stroke-width:0.2551181;stroke-miterlimit:5.00699282;stroke-dasharray:none;stroke-opacity:1" />
  <path
     inkscape:connector-curvature="0"
     id="path578"
     d="m 110.13106,48.47246 h -1.78595 c -0.0879,0 -0.16171,-0.07031 -0.16171,-0.158202 v -0.319923 c 0,-0.08789 0.0738,-0.158202 0.16171,-0.158202 h 1.78595 c 0.0879,0 0.1582,0.07032 0.1582,0.158202 v 0.319923 c 0,0.08789 -0.0703,0.158202 -0.1582,0.158202 z m 0,0"
     style="fill:none;fill-opacity:1;fill-rule:evenodd;stroke:#000000;stroke-width:0.2551181;stroke-miterlimit:5.00699282;stroke-dasharray:none;stroke-opacity:1" />
  <path
     inkscape:connector-curvature="0"
     id="path580"
     d="m 106.74004,46.547265 h -0.31993 c -0.0879,0 -0.1582,-0.07031 -0.1582,-0.158203 v -1.785937 c 0,-0.08789 0.0703,-0.158203 0.1582,-0.158203 h 0.31993 c 0.0879,0 0.1582,0.07032 0.1582,0.158203 v 1.785937 c 0,0.08789 -0.0703,0.158203 -0.1582,0.158203 z m 0,0"
     style="fill:none;fill-opacity:1;fill-rule:evenodd;stroke:#000000;stroke-width:0.2551181;stroke-miterlimit:5.00699282;stroke-dasharray:none;stroke-opacity:1" />
  <path
     inkscape:connector-curvature="0"
     id="path582"
     d="m 105.32207,46.547265 h -0.31992 c -0.0879,0 -0.15821,-0.07031 -0.15821,-0.158203 v -1.785937 c 0,-0.08789 0.0703,-0.158203 0.15821,-0.158203 h 0.31992 c 0.0879,0 0.15821,0.07032 0.15821,0.158203 v 1.785937 c 0,0.08789 -0.0703,0.158203 -0.15821,0.158203 z m 0,0"
     style="fill:none;fill-opacity:1;fill-rule:evenodd;stroke:#000000;stroke-width:0.2551181;stroke-miterlimit:5.00699282;stroke-dasharray:none;stroke-opacity:1" />
  <path
     inkscape:connector-curvature="0"
     id="path584"
     d="m 103.90411,46.547265 h -0.31993 c -0.0879,0 -0.1582,-0.07031 -0.1582,-0.158203 v -1.785937 c 0,-0.08789 0.0703,-0.158203 0.1582,-0.158203 h 0.31993 c 0.0879,0 0.1582,0.07032 0.1582,0.158203 v 1.785937 c 0,0.08789 -0.0703,0.158203 -0.1582,0.158203 z m 0,0"
     style="fill:none;fill-opacity:1;fill-rule:evenodd;stroke:#000000;stroke-width:0.2551181;stroke-miterlimit:5.00699282;stroke-dasharray:none;stroke-opacity:1" />
  <path
     inkscape:connector-curvature="0"
     id="path586"
     d="m 102.48633,46.547265 h -0.31641 c -0.0879,0 -0.16171,-0.07031 -0.16171,-0.158203 v -1.785937 c 0,-0.08789 0.0738,-0.158203 0.16171,-0.158203 h 0.31641 c 0.0879,0 0.16171,0.07032 0.16171,0.158203 v 1.785937 c 0,0.08789 -0.0738,0.158203 -0.16171,0.158203 z m 0,0"
     style="fill:none;fill-opacity:1;fill-rule:evenodd;stroke:#000000;stroke-width:0.2551181;stroke-miterlimit:5.00699282;stroke-dasharray:none;stroke-opacity:1" />
  <path
     inkscape:connector-curvature="0"
     id="path588"
     d="m 101.06836,46.547265 h -0.3164 c -0.0879,0 -0.16172,-0.07031 -0.16172,-0.158203 v -1.785937 c 0,-0.08789 0.0738,-0.158203 0.16172,-0.158203 h 0.3164 c 0.0914,0 0.16172,0.07032 0.16172,0.158203 v 1.785937 c 0,0.08789 -0.0703,0.158203 -0.16172,0.158203 z m 0,0"
     style="fill:none;fill-opacity:1;fill-rule:evenodd;stroke:#000000;stroke-width:0.2551181;stroke-miterlimit:5.00699282;stroke-dasharray:none;stroke-opacity:1" />
  <path
     inkscape:connector-curvature="0"
     id="path590"
     d="m 99.14668,48.47246 h -1.785938 c -0.08789,0 -0.161719,-0.07031 -0.161719,-0.158202 v -0.319923 c 0,-0.08789 0.07383,-0.158202 0.161719,-0.158202 h 1.785938 c 0.08789,0 0.158203,0.07032 0.158203,0.158202 v 0.319923 c 0,0.08789 -0.07032,0.158202 -0.158203,0.158202 z m 0,0"
     style="fill:none;fill-opacity:1;fill-rule:evenodd;stroke:#000000;stroke-width:0.2551181;stroke-miterlimit:5.00699282;stroke-dasharray:none;stroke-opacity:1" />
  <path
     inkscape:connector-curvature="0"
     id="path592"
     d="m 99.14668,49.890234 h -1.785938 c -0.08789,0 -0.161719,-0.07383 -0.161719,-0.161718 v -0.316407 c 0,-0.08789 0.07383,-0.161718 0.161719,-0.161718 h 1.785938 c 0.08789,0 0.158203,0.07383 0.158203,0.161718 v 0.316407 c 0,0.08789 -0.07032,0.161718 -0.158203,0.161718 z m 0,0"
     style="fill:none;fill-opacity:1;fill-rule:evenodd;stroke:#000000;stroke-width:0.2551181;stroke-miterlimit:5.00699282;stroke-dasharray:none;stroke-opacity:1" />
  <path
     inkscape:connector-curvature="0"
     id="path594"
     d="m 99.14668,51.308203 h -1.785938 c -0.08789,0 -0.161719,-0.07383 -0.161719,-0.161719 v -0.316406 c 0,-0.08789 0.07383,-0.161719 0.161719,-0.161719 h 1.785938 c 0.08789,0 0.158203,0.07383 0.158203,0.161719 v 0.316406 c 0,0.08789 -0.07032,0.161719 -0.158203,0.161719 z m 0,0"
     style="fill:none;fill-opacity:1;fill-rule:evenodd;stroke:#000000;stroke-width:0.2551181;stroke-miterlimit:5.00699282;stroke-dasharray:none;stroke-opacity:1" />
  <path
     inkscape:connector-curvature="0"
     id="path596"
     d="m 99.14668,52.72246 h -1.785938 c -0.08789,0 -0.161719,-0.07031 -0.161719,-0.158202 v -0.319923 c 0,-0.08789 0.07383,-0.158202 0.161719,-0.158202 h 1.785938 c 0.08789,0 0.158203,0.07032 0.158203,0.158202 v 0.319923 c 0,0.08789 -0.07032,0.158202 -0.158203,0.158202 z m 0,0"
     style="fill:none;fill-opacity:1;fill-rule:evenodd;stroke:#000000;stroke-width:0.2551181;stroke-miterlimit:5.00699282;stroke-dasharray:none;stroke-opacity:1" />
  <path
     inkscape:connector-curvature="0"
     id="path598"
     d="m 99.14668,54.140429 h -1.785938 c -0.08789,0 -0.161719,-0.07032 -0.161719,-0.158202 v -0.319923 c 0,-0.08789 0.07383,-0.158202 0.161719,-0.158202 h 1.785938 c 0.08789,0 0.158203,0.07032 0.158203,0.158202 v 0.319923 c 0,0.08789 -0.07032,0.158202 -0.158203,0.158202 z m 0,0"
     style="fill:none;fill-opacity:1;fill-rule:evenodd;stroke:#000000;stroke-width:0.2551181;stroke-miterlimit:5.00699282;stroke-dasharray:none;stroke-opacity:1" />
  <path
     inkscape:connector-curvature="0"
     id="path600"
     d="m 102.62324,54.048242 h -1.30078 c -0.35156,0 -0.63633,-0.284765 -0.63633,-0.636328 v -1.304297 c 0,-0.351563 0.28477,-0.636328 0.63633,-0.636328 h 1.30078 c 0.35157,0 0.63985,0.284765 0.63985,0.636328 v 1.304297 c 0,0.351563 -0.28828,0.636328 -0.63985,0.636328 z m 0,0"
     style="fill:none;fill-opacity:1;fill-rule:evenodd;stroke:#000000;stroke-width:0.2551181;stroke-miterlimit:5.00699282;stroke-dasharray:none;stroke-opacity:1" />
  <path
     inkscape:connector-curvature="0"
     id="path602"
     d="m 106.16621,54.048242 h -1.30078 c -0.35157,0 -0.63633,-0.284765 -0.63633,-0.636328 v -1.304297 c 0,-0.351563 0.28476,-0.636328 0.63633,-0.636328 h 1.30078 c 0.35508,0 0.63985,0.284765 0.63985,0.636328 v 1.304297 c 0,0.351563 -0.28477,0.636328 -0.63985,0.636328 z m 0,0"
     style="fill:none;fill-opacity:1;fill-rule:evenodd;stroke:#000000;stroke-width:0.2551181;stroke-miterlimit:5.00699282;stroke-dasharray:none;stroke-opacity:1" />
  <path
     inkscape:connector-curvature="0"
     id="path604"
     d="m 102.62324,50.505274 h -1.30078 c -0.35156,0 -0.63633,-0.284766 -0.63633,-0.639844 v -1.300781 c 0,-0.351563 0.28477,-0.636329 0.63633,-0.636329 h 1.30078 c 0.35157,0 0.63985,0.284766 0.63985,0.636329 v 1.300781 c 0,0.355078 -0.28828,0.639844 -0.63985,0.639844 z m 0,0"
     style="fill:none;fill-opacity:1;fill-rule:evenodd;stroke:#000000;stroke-width:0.2551181;stroke-miterlimit:5.00699282;stroke-dasharray:none;stroke-opacity:1" />
  <path
     inkscape:connector-curvature="0"
     id="path606"
     d="m 106.16621,50.505274 h -1.30078 c -0.35157,0 -0.63633,-0.284766 -0.63633,-0.639844 v -1.300781 c 0,-0.351563 0.28476,-0.636329 0.63633,-0.636329 h 1.30078 c 0.35508,0 0.63985,0.284766 0.63985,0.636329 v 1.300781 c 0,0.355078 -0.28477,0.639844 -0.63985,0.639844 z m 0,0"
     style="fill:none;fill-opacity:1;fill-rule:evenodd;stroke:#000000;stroke-width:0.2551181;stroke-miterlimit:5.00699282;stroke-dasharray:none;stroke-opacity:1" />
  <path
     inkscape:connector-curvature="0"
     id="path608"
     d="M 85.21096,67.031226 V 32.308578"
     style="fill:none;stroke:#000000;stroke-width:0.28346456;stroke-linecap:round;stroke-linejoin:miter;stroke-miterlimit:5.00699282;stroke-opacity:1;fill-opacity:1;stroke-dasharray:none" />
  <path
     inkscape:connector-curvature="0"
     id="path610"
     d="M 83.792992,30.89061 H 59.6992"
     style="fill:none;stroke:#000000;stroke-width:0.28346456;stroke-linecap:round;stroke-linejoin:miter;stroke-miterlimit:5.00699282;stroke-opacity:1;fill-opacity:1;stroke-dasharray:none" />
  <path
     inkscape:connector-curvature="0"
     id="path612"
     d="m 83.792992,30.89061 c 0.7812,0 1.417968,0.63288 1.417968,1.417968"
     style="fill:none;stroke:#000000;stroke-width:0.28346456;stroke-linecap:round;stroke-linejoin:miter;stroke-miterlimit:5.00699282;stroke-opacity:1;fill-opacity:1;stroke-dasharray:none" />
  <path
     inkscape:connector-curvature="0"
     id="path614"
     d="m 58.281232,32.308578 c 0,-0.78516 0.63288,-1.417968 1.417968,-1.417968"
     style="fill:none;stroke:#000000;stroke-width:0.28346456;stroke-linecap:round;stroke-linejoin:miter;stroke-miterlimit:5.00699282;stroke-opacity:1;fill-opacity:1;stroke-dasharray:none" />
  <path
     inkscape:connector-curvature="0"
     id="path616"
     d="M 58.281232,32.308578 V 67.031226"
     style="fill:none;stroke:#000000;stroke-width:0.28346456;stroke-linecap:round;stroke-linejoin:miter;stroke-miterlimit:5.00699282;stroke-opacity:1;fill-opacity:1;stroke-dasharray:none" />
  <path
     inkscape:connector-curvature="0"
     id="path618"
     d="m 85.21096,67.031226 c 0,0.78516 -0.63648,1.417968 -1.417968,1.417968"
     style="fill:none;stroke:#000000;stroke-width:0.28346456;stroke-linecap:round;stroke-linejoin:miter;stroke-miterlimit:5.00699282;stroke-opacity:1;fill-opacity:1;stroke-dasharray:none" />
  <path
     inkscape:connector-curvature="0"
     id="path620"
     d="m 59.6992,68.449194 c -0.78516,0 -1.417968,-0.63288 -1.417968,-1.417968"
     style="fill:none;stroke:#000000;stroke-width:0.28346456;stroke-linecap:round;stroke-linejoin:miter;stroke-miterlimit:5.00699282;stroke-opacity:1;fill-opacity:1;stroke-dasharray:none" />
  <path
     inkscape:connector-curvature="0"
     id="path622"
     d="M 59.6992,68.449194 H 83.792992"
     style="fill:none;stroke:#000000;stroke-width:0.28346456;stroke-linecap:round;stroke-linejoin:miter;stroke-miterlimit:5.00699282;stroke-opacity:1;fill-opacity:1;stroke-dasharray:none" />
  <path
     inkscape:connector-curvature="0"
     id="path624"
     d="M 119.22657,19.550754 H 93.71488"
     style="fill:none;stroke:#000000;stroke-width:0.28346456;stroke-linecap:round;stroke-linejoin:miter;stroke-miterlimit:5.00699282;stroke-opacity:1;fill-opacity:1;stroke-dasharray:none" />
  <path
     inkscape:connector-curvature="0"
     id="path626"
     d="m 122.05862,16.718778 c 0,1.562472 -1.26958,2.831976 -2.83205,2.831976"
     style="fill:none;stroke:#000000;stroke-width:0.28346456;stroke-linecap:round;stroke-linejoin:miter;stroke-miterlimit:5.00699282;stroke-opacity:1;fill-opacity:1;stroke-dasharray:none" />
  <path
     inkscape:connector-curvature="0"
     id="path628"
     d="m 93.71488,19.550754 c -1.566432,0 -2.835936,-1.269504 -2.835936,-2.831976"
     style="fill:none;stroke:#000000;stroke-width:0.28346456;stroke-linecap:round;stroke-linejoin:miter;stroke-miterlimit:5.00699282;stroke-opacity:1;fill-opacity:1;stroke-dasharray:none" />
  <path
     inkscape:connector-curvature="0"
     id="path630"
     d="m 122.05862,8.214858 v 8.50392"
     style="fill:none;stroke:#000000;stroke-width:0.28346456;stroke-linecap:round;stroke-linejoin:miter;stroke-miterlimit:5.00699282;stroke-opacity:1;fill-opacity:1;stroke-dasharray:none" />
  <path
     inkscape:connector-curvature="0"
     id="path632"
     d="M 90.878944,16.718778 V 8.214858"
     style="fill:none;stroke:#000000;stroke-width:0.28346456;stroke-linecap:round;stroke-linejoin:miter;stroke-miterlimit:5.00699282;stroke-opacity:1;fill-opacity:1;stroke-dasharray:none" />
  <path
     inkscape:connector-curvature="0"
     id="path634"
     d="m 122.05862,8.214858 c 0,-1.566432 1.2695,-2.835936 2.83593,-2.835936"
     style="fill:none;stroke:#000000;stroke-width:0.28346456;stroke-linecap:round;stroke-linejoin:miter;stroke-miterlimit:5.00699282;stroke-opacity:1;fill-opacity:1;stroke-dasharray:none" />
  <path
     inkscape:connector-curvature="0"
     id="path636"
     d="m 88.042936,5.378922 c 1.566432,0 2.836008,1.269504 2.836008,2.835936"
     style="fill:none;stroke:#000000;stroke-width:0.28346456;stroke-linecap:round;stroke-linejoin:miter;stroke-miterlimit:5.00699282;stroke-opacity:1;fill-opacity:1;stroke-dasharray:none" />
  <path
     inkscape:connector-curvature="0"
     id="path638"
     d="M 143.32029,5.378922 H 124.89455"
     style="fill:none;stroke:#000000;stroke-width:0.28346456;stroke-linecap:round;stroke-linejoin:miter;stroke-miterlimit:5.00699282;stroke-opacity:1;fill-opacity:1;stroke-dasharray:none" />
  <path
     inkscape:connector-curvature="0"
     id="path640"
     d="M 88.042936,5.378922 H 10.089832"
     style="fill:none;stroke:#000000;stroke-width:0.28346456;stroke-linecap:round;stroke-linejoin:miter;stroke-miterlimit:5.00699282;stroke-opacity:1;fill-opacity:1;stroke-dasharray:none" />
  <path
     inkscape:connector-curvature="0"
     id="path642"
     d="m 143.32029,5.378922 c 1.56643,0 2.83593,1.269504 2.83593,2.835936"
     style="fill:none;stroke:#000000;stroke-width:0.28346456;stroke-linecap:round;stroke-linejoin:miter;stroke-miterlimit:5.00699282;stroke-opacity:1;fill-opacity:1;stroke-dasharray:none" />
  <path
     inkscape:connector-curvature="0"
     id="path644"
     d="m 7.257784,8.214858 c 0,-1.566432 1.269576,-2.835936 2.832048,-2.835936"
     style="fill:none;stroke:#000000;stroke-width:0.28346456;stroke-linecap:round;stroke-linejoin:miter;stroke-miterlimit:5.00699282;stroke-opacity:1;fill-opacity:1;stroke-dasharray:none" />
  <path
     inkscape:connector-curvature="0"
     id="path646"
     d="M 146.15622,90.417978 V 8.214858"
     style="fill:none;stroke:#000000;stroke-width:0.28346456;stroke-linecap:round;stroke-linejoin:miter;stroke-miterlimit:5.00699282;stroke-opacity:1;fill-opacity:1;stroke-dasharray:none" />
  <path
     inkscape:connector-curvature="0"
     id="path648"
     d="m 7.257784,8.214858 v 82.20312"
     style="fill:none;stroke:#000000;stroke-width:0.28346456;stroke-linecap:round;stroke-linejoin:miter;stroke-miterlimit:5.00699282;stroke-opacity:1;fill-opacity:1;stroke-dasharray:none" />
  <path
     inkscape:connector-curvature="0"
     id="path650"
     d="m 146.15622,90.417978 c 0,1.566432 -1.2695,2.835936 -2.83593,2.835936"
     style="fill:none;stroke:#000000;stroke-width:0.28346456;stroke-linecap:round;stroke-linejoin:miter;stroke-miterlimit:5.00699282;stroke-opacity:1;fill-opacity:1;stroke-dasharray:none" />
  <path
     inkscape:connector-curvature="0"
     id="path652"
     d="m 10.089832,93.253914 c -1.562472,0 -2.832048,-1.269504 -2.832048,-2.835936"
     style="fill:none;stroke:#000000;stroke-width:0.28346456;stroke-linecap:round;stroke-linejoin:miter;stroke-miterlimit:5.00699282;stroke-opacity:1;fill-opacity:1;stroke-dasharray:none" />
  <path
     inkscape:connector-curvature="0"
     id="path654"
     d="M 10.089832,93.253914 H 143.32029"
     style="fill:none;stroke:#000000;stroke-width:0.28346456;stroke-linecap:round;stroke-linejoin:miter;stroke-miterlimit:5.00699282;stroke-opacity:1;fill-opacity:1;stroke-dasharray:none" />
</svg>
