  0
SECTION
  2
HEADER
  9
$ACADVER
  1
AC1009
  9
$INSBASE
 10
0.0
 20
0.0
 30
0.0
  9
$EXTMIN
 10
0.0
 20
0.0
 30
0.0
  9
$EXTMAX
 10
0.0
 20
0.0
 30
0.0
  0
ENDSEC
  0
SECTION
  2
TABLES
  0
TABLE
  2
VPORT
 70
0
  0
ENDTAB
  0
TABLE
  2
LTYPE
 70
1
  0
LTYPE
  2
CONTINUOUS
 70
0
  3
Solid line
 72
65
 73
0
 40
0.0
  0
ENDTAB
  0
TABLE
  2
LAYER
 70
1
  0
LAYER
  2
0
 70
64
 62
7
  6
continuous
  0
ENDTAB
  0
TABLE
  2
STYLE
 70
1
  0
STYLE
  2
STANDARD
 70
0
 40
0
 41
1.0
 50
0.0
 71
0
 42
1
 3
ARIAL.TTF
 4

  0
ENDTAB
  0
TABLE
  2
VIEW
 70
0
  0
ENDTAB
  0
ENDSEC
  0
SECTION
  2
BLOCKS
  0
BLOCK
  8
0
  2
FILLET002
 70
0
 10
0.0
 20
0.0
 30
0.0
  3
FILLET002
  0
LINE
  8
0
 62
0
 10
-48.0
 20
0.0
 30
0.0
 11
-1.0
 21
0.0
 31
0.0
  0
ARC
  8
0
 62
0
 10
-48.0
 20
0.9999999999999998
 30
0.0
 40
1.0
 50
180.0
 51
-90.0
  0
ARC
  8
0
 62
0
 10
-0.9999999999999998
 20
0.9999999999999998
 30
0.0
 40
1.0
 50
-89.99999999999999
 51
0.0
  0
LINE
  8
0
 62
0
 10
-49.0
 20
30.0
 30
0.0
 11
-49.0
 21
1.0
 31
0.0
  0
LINE
  8
0
 62
0
 10
0.0
 20
1.0
 30
0.0
 11
0.0
 21
30.0
 31
0.0
  0
ARC
  8
0
 62
0
 10
-48.0
 20
30.0
 30
0.0
 40
1.0
 50
90.0
 51
-180.0
  0
ARC
  8
0
 62
0
 10
-0.9999999999999998
 20
30.0
 30
0.0
 40
1.0
 50
-0.0
 51
90.0
  0
LINE
  8
0
 62
0
 10
-20.5
 20
31.0
 30
0.0
 11
-48.0
 21
31.0
 31
0.0
  0
LINE
  8
0
 62
0
 10
-1.0
 20
31.0
 30
0.0
 11
-7.5
 21
31.0
 31
0.0
  0
ARC
  8
0
 62
0
 10
-20.5
 20
30.0
 30
0.0
 40
1.0
 50
-0.0
 51
90.0
  0
ARC
  8
0
 62
0
 10
-7.5
 20
30.0
 30
0.0
 40
1.0
 50
90.0
 51
-180.0
  0
LINE
  8
0
 62
0
 10
-19.5
 20
27.0
 30
0.0
 11
-19.5
 21
30.0
 31
0.0
  0
LINE
  8
0
 62
0
 10
-8.5
 20
30.0
 30
0.0
 11
-8.5
 21
27.0
 31
0.0
  0
ARC
  8
0
 62
0
 10
-18.5
 20
27.0
 30
0.0
 40
1.0
 50
-180.0
 51
-90.0
  0
ARC
  8
0
 62
0
 10
-9.5
 20
27.0
 30
0.0
 40
1.0
 50
-90.0
 51
-0.0
  0
LINE
  8
0
 62
0
 10
-9.5
 20
26.0
 30
0.0
 11
-18.5
 21
26.0
 31
0.0
  0
LINE
  8
0
 62
0
 10
-30.5
 20
8.750000000000002
 30
0.0
 11
-22.000000000000004
 21
8.750000000000002
 31
0.0
  0
ARC
  8
0
 62
0
 10
-30.5
 20
9.250000000000002
 30
0.0
 40
0.5
 50
-180.0
 51
-90.0
  0
ARC
  8
0
 62
0
 10
-22.000000000000004
 20
9.250000000000002
 30
0.0
 40
0.5
 50
-90.0
 51
-0.0
  0
LINE
  8
0
 62
0
 10
-31.0
 20
21.5
 30
0.0
 11
-31.0
 21
9.250000000000002
 31
0.0
  0
LINE
  8
0
 62
0
 10
-21.500000000000004
 20
9.250000000000002
 30
0.0
 11
-21.500000000000004
 21
21.5
 31
0.0
  0
ARC
  8
0
 62
0
 10
-30.5
 20
21.5
 30
0.0
 40
0.5
 50
90.0
 51
-180.0
  0
ARC
  8
0
 62
0
 10
-22.000000000000004
 20
21.5
 30
0.0
 40
0.5
 50
-0.0
 51
90.0
  0
LINE
  8
0
 62
0
 10
-22.000000000000004
 20
22.0
 30
0.0
 11
-30.5
 21
22.0
 31
0.0
  0
CIRCLE
  8
0
 62
0
 10
-4.32
 20
1.78
 30
0.0
 40
0.5
  0
CIRCLE
  8
0
 62
0
 10
-1.78
 20
1.78
 30
0.0
 40
0.5
  0
CIRCLE
  8
0
 62
0
 10
-1.78
 20
4.32
 30
0.0
 40
0.5
  0
CIRCLE
  8
0
 62
0
 10
-4.32
 20
4.32
 30
0.0
 40
0.5
  0
CIRCLE
  8
0
 62
0
 10
-4.319999999999999
 20
6.86
 30
0.0
 40
0.5
  0
CIRCLE
  8
0
 62
0
 10
-1.779999999999999
 20
6.86
 30
0.0
 40
0.5
  0
CIRCLE
  8
0
 62
0
 10
-4.319999999999999
 20
9.4
 30
0.0
 40
0.5
  0
CIRCLE
  8
0
 62
0
 10
-1.779999999999999
 20
9.4
 30
0.0
 40
0.5
  0
CIRCLE
  8
0
 62
0
 10
-4.3199999999999985
 20
17.02
 30
0.0
 40
0.5
  0
CIRCLE
  8
0
 62
0
 10
-1.779999999999998
 20
17.02
 30
0.0
 40
0.5
  0
CIRCLE
  8
0
 62
0
 10
-1.779999999999999
 20
11.94
 30
0.0
 40
0.5
  0
CIRCLE
  8
0
 62
0
 10
-1.779999999999999
 20
14.479999999999999
 30
0.0
 40
0.5
  0
CIRCLE
  8
0
 62
0
 10
-4.319999999999999
 20
14.479999999999999
 30
0.0
 40
0.5
  0
CIRCLE
  8
0
 62
0
 10
-4.319999999999999
 20
11.94
 30
0.0
 40
0.5
  0
CIRCLE
  8
0
 62
0
 10
-4.3199999999999985
 20
19.560000000000002
 30
0.0
 40
0.5
  0
CIRCLE
  8
0
 62
0
 10
-1.779999999999998
 20
19.560000000000002
 30
0.0
 40
0.5
  0
CIRCLE
  8
0
 62
0
 10
-45.5
 20
27.5
 30
0.0
 40
1.4
  0
CIRCLE
  8
0
 62
0
 10
-45.5
 20
3.5
 30
0.0
 40
1.4
  0
ENDBLK
  0
ENDSEC
  0
SECTION
  2
ENTITIES
  0
INSERT
  2
FILLET002
  8
0
 62
0
 10
0.0
 20
0.0
 30
0.0
  0
ENDSEC
  0
EOF
